<svg version="1.2" xmlns="http://www.w3.org/2000/svg" viewBox="0 0 493 493" width="493" height="493">
	<title>linkarrow-svg</title>
	<style>
		.s0 { fill: #0288d1 } 
	</style>
	<g id="Layer">
		<g id="Layer">
			<g id="Layer">
				<path id="Layer" class="s0" d="m492 246c0 7.2-2.8 14-7.9 19.1l-177.6 177.7c-5.1 5.1-11.9 7.9-19.1 7.9-7.2 0-13.9-2.8-19-7.9l-16.2-16.1c-5-5-7.8-11.7-7.8-18.9 0-7.2 2.8-13.8 7.8-18.9l104.9-104.4h-330.5c-14.9 0-26.6-12.8-26.6-27.7v-22.8c0-14.8 11.7-26.5 26.6-26.5h329.3l-103.7-103.9c-5-5-7.8-12-7.8-19.2 0-7.2 2.8-14 7.8-19.1l16.2-16.1c5-5.1 11.8-7.9 19-7.9 7.2 0 14 2.8 19.1 7.9l177.6 177.7c5.1 5.1 7.9 11.9 7.9 19.1z"/>
			</g>
		</g>
		<g id="Layer">
		</g>
		<g id="Layer">
		</g>
		<g id="Layer">
		</g>
		<g id="Layer">
		</g>
		<g id="Layer">
		</g>
		<g id="Layer">
		</g>
		<g id="Layer">
		</g>
		<g id="Layer">
		</g>
		<g id="Layer">
		</g>
		<g id="Layer">
		</g>
		<g id="Layer">
		</g>
		<g id="Layer">
		</g>
		<g id="Layer">
		</g>
		<g id="Layer">
		</g>
		<g id="Layer">
		</g>
	</g>
</svg>